<svg version="1.2" xmlns="http://www.w3.org/2000/svg" viewBox="0 0 376 241" width="376" height="241">
	<title>footer-logo2-svg</title>
	<style>
		.s0 { fill: #f5ba41 } 
		.s1 { fill: #f5ba41;stroke: #000000;stroke-width: .4 } 
	</style>
	<g id="Layer">
		<g id="Layer">
		</g>
	</g>
	<g id="Layer">
		<g id="Layer">
			<g id="Layer">
				<path id="Layer" class="s0" d="m0 233.7v-233.7h375.1v233.7h-19.8v-5.8h14v-222.1h-363.5v222.1h23.3v5.8z"/>
				<g id="Layer">
					<path id="text-1" fill-rule="evenodd" class="s0" d="m49 240.3h-2.4v-27.6l2.4-0.2zm4-4.8q-0.6-1.7-0.6-4.1 0-4.6 2.5-7.2 2.6-2.6 6.4-2.6 6.1 0 8 4.9 0.7 1.8 0.7 4.1 0 4.6-2.6 7.2-2.6 2.6-6.4 2.6-6 0-8-4.9zm1.8-4.4q0 3.4 1.7 5.3 1.8 1.9 4.6 1.9 2.7 0 4.6-2 1.9-2 1.9-5.4 0-3.4-1.8-5.3-1.7-1.9-4.5-1.9-2.8 0-4.7 2-1.8 2-1.8 5.4zm18.2 4.4q-0.6-1.7-0.6-4.1 0-4.6 2.5-7.2 2.6-2.6 6.4-2.6 6.1 0 8 4.9 0.7 1.8 0.7 4.1 0 4.6-2.6 7.2-2.5 2.6-6.4 2.6-6 0-8-4.9zm1.8-4.4q0 3.4 1.7 5.3 1.8 1.9 4.6 1.9 2.8 0 4.6-2 1.9-2 1.9-5.4 0-3.4-1.8-5.3-1.7-1.9-4.5-1.9-2.8 0-4.7 2-1.8 2-1.8 5.4zm21-18.6v27.8h-2.4v-27.6zm0 17.9l7.4-8.7h2.9l-7.9 8.7 8.6 9.9-2.7 0.1zm26.7-8.6l2.4-0.2v18.7h-2.4zm1.1-5q-0.7 0-1.1-0.4-0.4-0.5-0.4-1.3 0-0.7 0.4-1.2 0.4-0.4 1.2-0.4 0.7 0 1.2 0.4 0.4 0.5 0.4 1.3 0 0.8-0.5 1.2-0.5 0.4-1.2 0.4zm8.6 4.8v2.2q2.8-2 5.3-2.1 2.2 0 3.5 0.6 1.2 0.5 2 1.5 0.8 1 0.8 2.9v13.6h-2.4v-13q0-1.3-0.6-2.1-1.2-1.4-3.7-1.4-2.3 0.2-4.9 1.6v14.9h-2.4v-18.5zm24.1 16.1l0.4 2q-0.7 0.6-2.4 0.6-2.5 0-3.3-1.2-1.5-1.4-1.5-3.7v-11.5h-2l0.3-2.1h1.7v-3.7l2.5-0.2v3.9h4.3v2.1h-4.3v12.1q0 2.1 2.2 2.1 0.9 0 2.1-0.4zm2.8-2.1q-0.7-1.8-0.7-4.2 0-4.5 2.6-7.1 2.6-2.7 6.4-2.7 6.1 0 7.9 4.9 0.8 1.8 0.8 4.2 0 4.6-2.6 7.2-2.6 2.6-6.4 2.6-6.1 0-8-4.9zm1.8-4.4q0 3.4 1.7 5.3 1.8 1.8 4.6 1.8 2.7 0 4.6-2 1.8-1.9 1.8-5.4 0-3.4-1.7-5.2-1.7-1.9-4.5-1.9-2.8 0-4.7 2-1.8 2-1.8 5.4zm38.4 6.5l0.4 2q-0.7 0.6-2.4 0.6-2.5 0-3.3-1.2-1.5-1.4-1.5-3.7v-11.5h-2l0.3-2.1h1.7v-3.7l2.5-0.2v3.9h4.3v2.1h-4.3v12.1q0 2.1 2.2 2.1 0.9 0 2.1-0.4zm6.6-25.2v11.4q2.9-2.1 5.6-2.2 2.3 0 3.5 0.5 1.2 0.6 2 1.6 0.8 1 0.8 2.9v13.6h-2.4v-13q0-1.4-0.6-2.1-1.2-1.4-3.6-1.4-2.4 0.1-5.3 1.6v14.9h-2.5v-27.6zm17.5 18.7v0.6q0 6.5 6.3 6.5 2.6 0 4.8-0.7 0.6-0.2 0.8-0.3l0.5 2q-1.3 0.8-4.7 1.1-0.9 0.1-2 0.1-3.1 0-5.2-1.6-2.9-2.1-2.9-7 0-5 2.6-7.6 2.6-2.7 6.3-2.7 3.6 0 5.5 2.4 1.4 1.9 1.4 5 0 0.7-0.1 1.6h-13.2q-0.1 0.3-0.1 0.6zm6.6-7.3q-2.3 0-3.9 1.4-1.7 1.4-2.3 3.6h10.8q-0.2-4.1-3.2-4.8-0.6-0.2-1.4-0.2zm22.8-2.1v-4.4q0-5 5.5-5 1.5 0 2.6 0.3l-0.4 2q-1.2-0.2-2.1-0.2-0.9 0-1.6 0.3-1.6 0.8-1.6 3.5v3.5h4.6v2.1h-4.6v16.4h-2.4v-16.4h-2.1l0.3-2.1zm14.4 16.1q0.9 0.3 2.6 0.3 1.8 0 4.6-1.4v-15l2.5-0.2v18.7h-2.5v-2q-2.7 2.1-5.6 2.1-3.5 0-5.1-2.1-0.8-1-0.8-2.9v-13.6l2.4-0.2v13.2q0 2.3 1.9 3.1zm22.1-0.3l0.5 2q-0.7 0.7-2.4 0.7-2.5 0-3.3-1.2-1.5-1.4-1.5-3.8v-11.4h-2l0.3-2.1h1.7v-3.7l2.4-0.2v3.9h4.3v2.1h-4.3v12q0 2.2 2.3 2.2 0.9 0 2-0.5zm7.9 0.3q0.9 0.3 2.6 0.3 1.8 0 4.6-1.4v-15l2.4-0.2v18.7h-2.4v-2q-2.7 2.1-5.6 2.1-3.5 0-5.1-2.1-0.8-1-0.8-2.9v-13.6l2.4-0.2v13.2q0 2.3 1.9 3.1zm25.1-15.8l-1 2.3q-0.6-0.4-1.2-0.4-0.7 0-0.8 0.1-1.4 0-2.8 1-1.4 1-2.4 2.3v12.9h-2.4v-18.5l2.4-0.2v4.1q1.3-1.7 2.3-2.4 1.8-1.3 3.4-1.4 0.2 0 0.8 0 0.6 0 1.7 0.2zm2.4 9.1v0.6q0 6.5 6.3 6.5 2.6 0 4.8-0.7 0.6-0.2 0.8-0.3l0.5 2q-1.3 0.8-4.7 1.1-0.9 0.1-2 0.1-3.1 0-5.2-1.6-2.9-2.1-2.9-7 0-5 2.6-7.6 2.6-2.7 6.3-2.7 3.6 0 5.5 2.4 1.4 1.9 1.4 5 0 0.7-0.1 1.6h-13.2q-0.1 0.3-0.1 0.6zm6.6-7.3q-2.3 0-3.9 1.4-1.6 1.4-2.3 3.6h10.8q-0.2-4.1-3.2-4.8-0.6-0.2-1.4-0.2z"/>
				</g>
			</g>
			<g id="Layer">
				<g id="Layer">
					<g id="Layer">
						<g id="Layer">
							<g id="Layer">
								<path id="i-0" class="s1" d="m253.6 82.2c0-0.3 0.3-0.6 0.6-0.6h4.5c0.4 0 0.7 0.3 0.7 0.6v76c0 0.4-0.3 0.7-0.7 0.7h-4.5c-0.3 0-0.6-0.3-0.6-0.7z"/>
							</g>
							<g id="Layer">
								<g id="Layer">
									<g id="textblocktransform">
										<g id="textblock">
											<g id="Layer">
												<g id="Layer">
													<g id="Layer">
														<g id="Layer">
															<g id="text-0">
																<path id="Layer" class="s0" d="m41.9 143.8h35.3v8.6h-47.9v-7.8l35.1-46.6h-34.9v-8.6h47.4v7.8zm58.3 0h35.3v8.7h-47.8v-7.9l35-46.5h-34.9v-8.6h47.4v7.8zm138.2 8.6h-10.4v-39.4q0-5-1.3-8.6-1.2-3.7-4.1-5.7-2.9-2-7.7-2-4.6 0-8 1.9-3.3 1.9-5.4 5-2.1 3.1-2.9 7.1l-1.6-7.4h1.3q1-4.1 3.5-7.5 2.4-3.5 6.6-5.7 4.2-2.1 10.4-2.1 7 0 11.3 2.8 4.3 2.8 6.3 8.1 2 5.3 2 12.9zm-78.7 0h-10.4v-63h10.4l-0.4 15.1 0.4 0.7zm39.3 0h-10.3v-39.5q0-4.9-1.3-8.6-1.3-3.6-4.1-5.6-2.8-2.1-7.7-2.1-4.6 0-8 1.9-3.3 1.9-5.4 5.1-2.1 3.2-2.9 7.3l-2-7.5h2.4q1-4.2 3.3-7.7 2.4-3.6 6.5-5.7 4.1-2.1 10-2.1 8.7 0 13.2 4.6 4.6 4.5 5.8 13.1 0.3 1.3 0.4 2.8 0.1 1.5 0.1 3z"/>
															</g>
														</g>
													</g>
												</g>
											</g>
										</g>
									</g>
								</g>
							</g>
							<g id="Layer">
								<g id="Layer">
									<g id="Layer">
										<g id="icon-0">
											<path id="Layer" class="s0" d="m331.4 134.8c-8.5-2-4.2-10.8-4.2-10.8-4.9-7.6 3.4-9.5 3.4-9.5-0.9-7.8 6.5-6.9 6.5-6.9 4.5-4.9 8.6 0 8.6 0l-0.2-0.4c0.9-0.4-12-25.8-33.2-17.6q-0.2 0.1-0.5 0.1c-6.6-7.1 5.8-11.4 5.8-11.4l-2.2-2.6c-8.7 2.8-8.7 10-7.9 14.2-3.4-0.9-6.4-3.4-14.7 0.6 0 0-22.7 9.8-17.4 42.2 4.7 29.1 43.1 42.7 61.6 22.3 0 0 7.2-7.7 8.7-14.6-11.1 8.2-14.3-5.6-14.3-5.6z"/>
										</g>
									</g>
								</g>
							</g>
						</g>
					</g>
				</g>
			</g>
		</g>
	</g>
</svg>