<svg version="1.2" xmlns="http://www.w3.org/2000/svg" viewBox="0 0 656 240" width="656" height="240">
	<title>logo-svg</title>
	<style>
		.s0 { fill: #f5ba41;stroke: #000000;stroke-width: .4 } 
		.s1 { fill: #f5ba41 } 
	</style>
	<g id="Layer">
		<path id="i-0" class="s0" d="m424.3 16.8c0-0.6 0.4-1 1-1h9c0.5 0 1 0.4 1 1v205.7c0 0.5-0.5 1-1 1h-9c-0.6 0-1-0.5-1-1z"/>
	</g>
	<g id="Layer">
		<g id="Layer">
			<g id="textblocktransform">
				<g id="textblock">
					<g id="Layer">
						<g id="Layer">
							<g id="Layer">
								<g id="Layer">
									<path id="text-0" class="s1" d="m23.7 138.6h66.8v16.4h-90.5v-14.9l66.4-88.1h-66.1v-16.2h89.7v14.7zm110.3 0h66.8v16.4h-90.5v-14.9l66.3-88.1h-66v-16.2h89.7v14.7zm261.5 16.4h-19.8v-74.7q0-9.4-2.4-16.2-2.3-7-7.8-10.7-5.4-3.9-14.5-3.9-8.7 0-15.1 3.6-6.3 3.5-10.2 9.5-4 5.9-5.5 13.5l-3.1-14.1h2.4q2-7.7 6.6-14.3 4.7-6.6 12.7-10.6 7.9-4 19.6-4 13.3 0 21.4 5.2 8.2 5.3 12 15.3 3.7 10.1 3.7 24.5zm-148.9 0h-19.7v-119.2h19.7l-0.8 28.6 0.8 1.2zm74.4 0h-19.6v-74.6q0-9.4-2.4-16.3-2.4-7-7.8-10.7-5.4-3.8-14.5-3.8-8.8 0-15.1 3.5-6.4 3.6-10.3 9.6-3.9 6.1-5.5 13.8l-3.7-14.1h4.4q1.9-8 6.4-14.7 4.5-6.7 12.2-10.6 7.8-4 18.9-4 16.5 0 25.1 8.6 8.6 8.5 10.8 24.9 0.6 2.4 0.9 5.3 0.2 2.8 0.2 5.7z"/>
								</g>
							</g>
						</g>
					</g>
					<g id="Layer">
						<g id="Layer">
							<g id="Layer">
								<g id="Layer">
									<path id="text-1" fill-rule="evenodd" class="s1" d="m165.2 206h-1.9v-22l1.9-0.1zm3.3-3.8q-0.6-1.4-0.6-3.3 0-3.7 2.1-5.7 2-2.1 5.1-2.1 4.8 0 6.3 3.9 0.6 1.4 0.6 3.3 0 3.6-2.1 5.7-2 2.1-5.1 2.1-4.8 0-6.3-3.9zm1.3-3.5q0 2.7 1.4 4.2 1.4 1.5 3.7 1.5 2.2 0 3.7-1.6 1.4-1.6 1.4-4.3 0-2.7-1.4-4.2-1.3-1.5-3.6-1.5-2.2 0-3.7 1.6-1.5 1.5-1.5 4.3zm14.6 3.5q-0.5-1.4-0.5-3.3 0-3.7 2-5.7 2.1-2.1 5.1-2.1 4.8 0 6.4 3.9 0.5 1.4 0.5 3.3 0 3.6-2 5.7-2.1 2.1-5.1 2.1-4.9 0-6.4-3.9zm1.4-3.5q0 2.7 1.4 4.2 1.4 1.5 3.6 1.5 2.2 0 3.7-1.6 1.5-1.6 1.5-4.3 0-2.7-1.4-4.2-1.4-1.5-3.6-1.5-2.2 0-3.7 1.6-1.5 1.5-1.5 4.3zm16.7-14.9v22.2h-1.9v-22zm0 14.3l5.9-7h2.3l-6.3 7 6.9 7.8-2.1 0.2zm21.2-7l2-0.1v14.9h-2zm0.9-3.9q-0.6 0-0.9-0.4-0.3-0.4-0.3-1 0-0.6 0.3-1 0.4-0.3 1-0.3 0.6 0 0.9 0.3 0.4 0.4 0.4 1.1 0 0.6-0.4 0.9-0.4 0.4-1 0.4zm6.9 3.8v1.7q2.2-1.6 4.2-1.7 1.8 0 2.7 0.5 1 0.4 1.7 1.2 0.6 0.8 0.6 2.3v10.9h-1.9v-10.4q0-1.1-0.5-1.7-0.9-1.1-2.9-1.1-1.9 0.1-3.9 1.3v11.9h-1.9v-14.8zm19.1 12.8l0.4 1.6q-0.5 0.5-1.9 0.5-2 0-2.7-1-1.1-1.1-1.1-2.9v-9.1h-1.7l0.3-1.7h1.4v-3l1.9-0.1v3.1h3.4v1.7h-3.4v9.6q0 1.7 1.8 1.7 0.7 0 1.6-0.4zm2.3-1.6q-0.5-1.5-0.5-3.3 0-3.7 2-5.8 2.1-2 5.1-2 4.8 0 6.3 3.9 0.6 1.4 0.6 3.3 0 3.6-2 5.7-2.1 2.1-5.1 2.1-4.9 0-6.4-3.9zm1.4-3.6q0 2.8 1.4 4.3 1.4 1.5 3.6 1.5 2.2 0 3.7-1.6 1.5-1.6 1.5-4.3 0-2.7-1.4-4.2-1.4-1.5-3.6-1.5-2.3 0-3.7 1.5-1.5 1.6-1.5 4.3zm30.6 5.2l0.4 1.6q-0.6 0.5-2 0.5-1.9 0-2.6-1-1.1-1.1-1.1-2.9v-9.1h-1.7l0.3-1.7h1.4v-3l1.9-0.1v3.1h3.4v1.7h-3.4v9.6q0 1.7 1.8 1.7 0.7 0 1.6-0.4zm5.3-20v9.1q2.3-1.7 4.5-1.8 1.8 0 2.8 0.4 0.9 0.5 1.6 1.3 0.6 0.8 0.6 2.3v10.8h-1.9v-10.3q0-1.1-0.5-1.7-1-1.1-2.9-1.1-1.9 0.1-4.2 1.2v11.9h-2v-22zm14 14.9v0.5q0 5.2 5 5.2 2.1 0 3.8-0.6 0.4-0.1 0.6-0.2l0.5 1.6q-1.1 0.6-3.8 0.9-0.8 0-1.6 0-2.5 0-4.2-1.2-2.2-1.7-2.2-5.6 0-4 2-6.1 2.1-2.1 5-2.1 2.9 0 4.4 1.9 1.1 1.5 1.1 4 0 0.6 0 1.2h-10.6q0 0.3 0 0.5zm5.2-5.8q-1.8 0-3.1 1.1-1.3 1.1-1.8 2.9h8.6q-0.2-3.3-2.6-3.8-0.5-0.2-1.1-0.2zm18.2-1.7v-3.5q0-4 4.4-4 1.2 0 2 0.2l-0.3 1.7q-1-0.1-1.7-0.1-0.7 0-1.2 0.2-1.3 0.6-1.3 2.7v2.8h3.7v1.7h-3.7v13.1h-1.9v-13.1h-1.7l0.3-1.7zm11.5 12.9q0.6 0.2 2 0.2 1.5 0 3.7-1.1v-12l1.9-0.1v14.9h-1.9v-1.6q-2.2 1.7-4.5 1.7-2.8 0-4.1-1.7-0.6-0.8-0.6-2.3v-10.9l1.9-0.1v10.5q0 1.8 1.6 2.5zm17.6-0.2l0.3 1.6q-0.5 0.5-1.9 0.5-1.9 0-2.6-1-1.2-1.1-1.2-3v-9.1h-1.6l0.2-1.7h1.4v-2.9l2-0.2v3.1h3.4v1.7h-3.4v9.6q0 1.7 1.7 1.7 0.8 0 1.7-0.3zm6.3 0.2q0.6 0.2 2 0.2 1.5 0 3.7-1.1v-12l1.9-0.1v14.9h-1.9v-1.6q-2.2 1.7-4.5 1.7-2.8 0-4.1-1.7-0.6-0.8-0.6-2.3v-10.9l1.9-0.1v10.5q0 1.8 1.6 2.5zm20-12.6l-0.8 1.8q-0.5-0.3-1-0.3-0.5 0-0.6 0.1-1.1 0-2.3 0.8-1.1 0.8-1.9 1.8v10.3h-1.9v-14.8l1.9-0.1v3.3q1.1-1.4 1.9-2 1.4-1 2.7-1.1 0.2 0 0.6 0 0.5 0 1.4 0.2zm1.9 7.2v0.5q0 5.2 5 5.2 2.1 0 3.8-0.6 0.5-0.1 0.6-0.2l0.5 1.6q-1.1 0.6-3.8 0.9-0.7 0-1.6 0-2.5 0-4.1-1.2-2.3-1.7-2.3-5.6 0-4 2-6.1 2.1-2.1 5-2.1 2.9 0 4.4 1.9 1.1 1.5 1.1 4 0 0.6 0 1.2h-10.6q0 0.3 0 0.5zm5.2-5.8q-1.8 0-3.1 1.1-1.3 1.1-1.8 2.9h8.6q-0.2-3.3-2.5-3.8-0.6-0.2-1.2-0.2z"/>
								</g>
							</g>
						</g>
					</g>
				</g>
			</g>
		</g>
	</g>
	<g id="Layer">
		<g id="Layer">
			<g id="Layer">
				<g id="icon-0">
					<path id="Layer" class="s1" d="m616.7 158.9c-22.8-5.5-11.3-29.2-11.3-29.2-13.1-20.3 9.2-25.5 9.2-25.5-2.4-20.9 17.4-18.4 17.4-18.4 12.2-13.4 23.3 0 23.3 0l-0.7-1.1c2.5-1-32.2-69.5-89.2-47.5q-0.6 0.3-1.2 0.5c-17.9-19.1 15.5-30.9 15.5-30.9l-5.8-6.8c-23.5 7.4-23.6 26.7-21.3 38.1-9.2-2.4-17.2-9.2-39.6 1.6 0 0-60.9 26.4-46.8 113.5 12.7 78.2 115.9 114.6 165.6 59.9 0 0 19.5-20.7 23.5-39.2-29.9 21.9-38.6-15-38.6-15z"/>
				</g>
			</g>
		</g>
	</g>
</svg>